<svg class="toyplot-canvas-Canvas" xmlns:toyplot="http://www.sandia.gov/toyplot" xmlns:xlink="http://www.w3.org/1999/xlink" xmlns="http://www.w3.org/2000/svg" width="700.0px" height="540.0px" viewBox="0 0 700.0 540.0" preserveAspectRatio="xMidYMid meet" style="background-color:transparent;border-color:#292724;border-style:none;border-width:1.0;fill:rgb(16.1%,15.3%,14.1%);fill-opacity:1.0;font-family:Helvetica;font-size:12px;opacity:1.0;stroke:rgb(16.1%,15.3%,14.1%);stroke-opacity:1.0;stroke-width:1.0" id="te127647299de415987c11676215dadbf"><g class="toyplot-coordinates-Cartesian" id="t3b5067c809084346a4875137fdd0a6e0"><clipPath id="t07ab59df920e40849c023a1802d0aa6e"><rect x="30.0" y="30.0" width="640.0" height="480.0" /></clipPath><g clip-path="url(#t07ab59df920e40849c023a1802d0aa6e)"><g class="toytree-mark-Toytree" id="t67b4daba4f154351a44154591b6baec7"><g class="toytree-Edges" style="fill:none;stroke:rgb(14.9%,14.9%,14.9%);stroke-linecap:round;stroke-opacity:1;stroke-width:2"><path d="M 51.3 115.2 L 51.3 67.5 L 107.8 67.5" id="44,43" /><path d="M 51.3 115.2 L 51.3 96.5 L 107.8 96.5" id="44,42" /><path d="M 51.3 115.2 L 51.3 181.7 L 107.8 181.7" id="44,41" /><path d="M 107.8 181.7 L 107.8 129.0 L 164.2 129.0" id="41,40" /><path d="M 107.8 181.7 L 107.8 234.5 L 164.2 234.5" id="41,39" /><path d="M 164.2 129.0 L 164.2 139.8 L 220.7 139.8" id="40,38" /><path d="M 164.2 234.5 L 164.2 179.6 L 220.7 179.6" id="39,37" /><path d="M 164.2 234.5 L 164.2 289.4 L 220.7 289.4" id="39,36" /><path d="M 220.7 179.6 L 220.7 197.7 L 277.1 197.7" id="37,35" /><path d="M 220.7 289.4 L 220.7 374.3 L 277.1 374.3" id="36,34" /><path d="M 277.1 374.3 L 277.1 342.3 L 333.6 342.3" id="34,33" /><path d="M 277.1 374.3 L 277.1 406.2 L 333.6 406.2" id="34,32" /><path d="M 333.6 406.2 L 333.6 429.1 L 390.0 429.1" id="32,31" /><path d="M 333.6 406.2 L 333.6 465.2 L 390.0 465.2" id="32,30" /><path d="M 107.8 67.5 L 107.8 60.3 L 164.2 60.3" id="43,29" /><path d="M 107.8 67.5 L 107.8 74.8 L 164.2 74.8" id="43,28" /><path d="M 107.8 96.5 L 107.8 89.2 L 164.2 89.2" id="42,27" /><path d="M 107.8 96.5 L 107.8 103.7 L 164.2 103.7" id="42,26" /><path d="M 164.2 129.0 L 164.2 118.1 L 220.7 118.1" id="40,25" /><path d="M 220.7 139.8 L 220.7 132.6 L 277.1 132.6" id="38,24" /><path d="M 220.7 139.8 L 220.7 147.1 L 277.1 147.1" id="38,23" /><path d="M 220.7 179.6 L 220.7 161.5 L 277.1 161.5" id="37,22" /><path d="M 277.1 197.7 L 277.1 176.0 L 333.6 176.0" id="35,21" /><path d="M 277.1 197.7 L 277.1 190.5 L 333.6 190.5" id="35,20" /><path d="M 277.1 197.7 L 277.1 204.9 L 333.6 204.9" id="35,19" /><path d="M 277.1 197.7 L 277.1 219.4 L 333.6 219.4" id="35,18" /><path d="M 220.7 289.4 L 220.7 233.8 L 277.1 233.8" id="36,17" /><path d="M 220.7 289.4 L 220.7 248.3 L 277.1 248.3" id="36,16" /><path d="M 220.7 289.4 L 220.7 262.8 L 277.1 262.8" id="36,15" /><path d="M 220.7 289.4 L 220.7 277.2 L 277.1 277.2" id="36,14" /><path d="M 220.7 289.4 L 220.7 291.7 L 277.1 291.7" id="36,13" /><path d="M 220.7 289.4 L 220.7 306.2 L 277.1 306.2" id="36,12" /><path d="M 220.7 289.4 L 220.7 320.6 L 277.1 320.6" id="36,11" /><path d="M 333.6 342.3 L 333.6 335.1 L 390.0 335.1" id="33,10" /><path d="M 333.6 342.3 L 333.6 349.5 L 390.0 349.5" id="33,9" /><path d="M 333.6 406.2 L 333.6 364.0 L 390.0 364.0" id="32,8" /><path d="M 333.6 406.2 L 333.6 378.5 L 390.0 378.5" id="32,7" /><path d="M 333.6 406.2 L 333.6 392.9 L 390.0 392.9" id="32,6" /><path d="M 333.6 406.2 L 333.6 407.4 L 390.0 407.4" id="32,5" /><path d="M 390.0 429.1 L 390.0 421.9 L 446.4 421.9" id="31,4" /><path d="M 390.0 429.1 L 390.0 436.3 L 446.4 436.3" id="31,3" /><path d="M 390.0 465.2 L 390.0 450.8 L 446.4 450.8" id="30,2" /><path d="M 390.0 465.2 L 390.0 465.2 L 446.4 465.2" id="30,1" /><path d="M 390.0 465.2 L 390.0 479.7 L 446.4 479.7" id="30,0" /></g><g class="toytree-AlignEdges" style="stroke:rgb(66.3%,66.3%,66.3%);stroke-dasharray:2, 4;stroke-linecap:round;stroke-opacity:1.0;stroke-width:2"><path d="M 446.4 479.7 L 446.4 479.7" /><path d="M 446.4 465.2 L 446.4 465.2" /><path d="M 446.4 450.8 L 446.4 450.8" /><path d="M 446.4 436.3 L 446.4 436.3" /><path d="M 446.4 421.9 L 446.4 421.9" /><path d="M 446.4 407.4 L 390.0 407.4" /><path d="M 446.4 392.9 L 390.0 392.9" /><path d="M 446.4 378.5 L 390.0 378.5" /><path d="M 446.4 364.0 L 390.0 364.0" /><path d="M 446.4 349.5 L 390.0 349.5" /><path d="M 446.4 335.1 L 390.0 335.1" /><path d="M 446.4 320.6 L 277.1 320.6" /><path d="M 446.4 306.2 L 277.1 306.2" /><path d="M 446.4 291.7 L 277.1 291.7" /><path d="M 446.4 277.2 L 277.1 277.2" /><path d="M 446.4 262.8 L 277.1 262.8" /><path d="M 446.4 248.3 L 277.1 248.3" /><path d="M 446.4 233.8 L 277.1 233.8" /><path d="M 446.4 219.4 L 333.6 219.4" /><path d="M 446.4 204.9 L 333.6 204.9" /><path d="M 446.4 190.5 L 333.6 190.5" /><path d="M 446.4 176.0 L 333.6 176.0" /><path d="M 446.4 161.5 L 277.1 161.5" /><path d="M 446.4 147.1 L 277.1 147.1" /><path d="M 446.4 132.6 L 277.1 132.6" /><path d="M 446.4 118.1 L 220.7 118.1" /><path d="M 446.4 103.7 L 164.2 103.7" /><path d="M 446.4 89.2 L 164.2 89.2" /><path d="M 446.4 74.8 L 164.2 74.8" /><path d="M 446.4 60.3 L 164.2 60.3" /></g><g class="toytree-TipLabels" style="fill:rgb(14.9%,14.9%,14.9%);fill-opacity:1.0;font-family:helvetica;font-size:8px;font-weight:normal;stroke:none;white-space:pre"><g transform="translate(446.45,479.71)rotate(0)"><text x="15.00" y="2.04" style="fill:rgb(41.6%,35.3%,80.4%);fill-opacity:1.0">Clostridium_perfringens_13</text></g><g transform="translate(446.45,465.24)rotate(0)"><text x="15.00" y="2.04" style="fill:rgb(41.6%,35.3%,80.4%);fill-opacity:1.0">Clostridium_perfringens_ATCC_13124</text></g><g transform="translate(446.45,450.78)rotate(0)"><text x="15.00" y="2.04" style="fill:rgb(41.6%,35.3%,80.4%);fill-opacity:1.0">Clostridium_perfringens_SM101</text></g><g transform="translate(446.45,436.32)rotate(0)"><text x="15.00" y="2.04" style="fill:rgb(41.6%,35.3%,80.4%);fill-opacity:1.0">Clostridium_botulinum_A</text></g><g transform="translate(446.45,421.86)rotate(0)"><text x="15.00" y="2.04" style="fill:rgb(41.6%,35.3%,80.4%);fill-opacity:1.0">Clostridium_botulinum_F</text></g><g transform="translate(446.45,407.39)rotate(0)"><text x="15.00" y="2.04" style="fill:rgb(41.6%,35.3%,80.4%);fill-opacity:1.0">Clostridium_acetobutylicum</text></g><g transform="translate(446.45,392.93)rotate(0)"><text x="15.00" y="2.04" style="fill:rgb(41.6%,35.3%,80.4%);fill-opacity:1.0">Clostridium_tetani</text></g><g transform="translate(446.45,378.47)rotate(0)"><text x="15.00" y="2.04" style="fill:rgb(41.6%,35.3%,80.4%);fill-opacity:1.0">Clostridium_beijerinckii</text></g><g transform="translate(446.45,364.01)rotate(0)"><text x="15.00" y="2.04" style="fill:rgb(41.6%,35.3%,80.4%);fill-opacity:1.0">Clostridium_kluyveri</text></g><g transform="translate(446.45,349.54)rotate(0)"><text x="15.00" y="2.04" style="fill:rgb(41.6%,35.3%,80.4%);fill-opacity:1.0">Alkaliphilus_metalliredigens</text></g><g transform="translate(446.45,335.08)rotate(0)"><text x="15.00" y="2.04" style="fill:rgb(41.6%,35.3%,80.4%);fill-opacity:1.0">Alkaliphilus_oremlandii</text></g><g transform="translate(446.45,320.62)rotate(0)"><text x="15.00" y="2.04" style="fill:rgb(41.6%,35.3%,80.4%);fill-opacity:1.0">Syntrophomonas_wolfei</text></g><g transform="translate(446.45,306.16)rotate(0)"><text x="15.00" y="2.04" style="fill:rgb(41.6%,35.3%,80.4%);fill-opacity:1.0">Clostridioides_difficile</text></g><g transform="translate(446.45,291.69)rotate(0)"><text x="15.00" y="2.04" style="fill:rgb(41.6%,35.3%,80.4%);fill-opacity:1.0">Acetivibrio_thermocellus</text></g><g transform="translate(446.45,277.23)rotate(0)"><text x="15.00" y="2.04" style="fill:rgb(41.6%,35.3%,80.4%);fill-opacity:1.0">Symbiobacterium_thermophilum</text></g><g transform="translate(446.45,262.77)rotate(0)"><text x="15.00" y="2.04" style="fill:rgb(41.6%,35.3%,80.4%);fill-opacity:1.0">Desulfitobacterium_hafniense</text></g><g transform="translate(446.45,248.31)rotate(0)"><text x="15.00" y="2.04" style="fill:rgb(41.6%,35.3%,80.4%);fill-opacity:1.0">Desulforamulus_reducens</text></g><g transform="translate(446.45,233.84)rotate(0)"><text x="15.00" y="2.04" style="fill:rgb(41.6%,35.3%,80.4%);fill-opacity:1.0">Lachnoclostridium_phytofermentans</text></g><g transform="translate(446.45,219.38)rotate(0)"><text x="15.00" y="2.04" style="fill:rgb(0%,74.9%,100%);fill-opacity:1.0">Moorella_thermoacetica</text></g><g transform="translate(446.45,204.92)rotate(0)"><text x="15.00" y="2.04" style="fill:rgb(0%,74.9%,100%);fill-opacity:1.0">Carboxydothermus_hydrogenoformans</text></g><g transform="translate(446.45,190.46)rotate(0)"><text x="15.00" y="2.04" style="fill:rgb(0%,74.9%,100%);fill-opacity:1.0">Thermoanaerobacter_pseudethanolicus</text></g><g transform="translate(446.45,175.99)rotate(0)"><text x="15.00" y="2.04" style="fill:rgb(0%,74.9%,100%);fill-opacity:1.0">Caldanaerobacter_subterraneus</text></g><g transform="translate(446.45,161.53)rotate(0)"><text x="15.00" y="2.04" style="fill:rgb(0%,74.9%,100%);fill-opacity:1.0">Caldicellulosiruptor_saccharolyticus</text></g><g transform="translate(446.45,147.07)rotate(0)"><text x="15.00" y="2.04" style="fill:rgb(60.4%,80.4%,19.6%);fill-opacity:1.0">Staphylococcus_aureus</text></g><g transform="translate(446.45,132.61)rotate(0)"><text x="15.00" y="2.04" style="fill:rgb(60.4%,80.4%,19.6%);fill-opacity:1.0">Bacillus_subtilis</text></g><g transform="translate(446.45,118.14)rotate(0)"><text x="15.00" y="2.04" style="fill:rgb(0%,39.2%,0%);fill-opacity:1.0">Lactobacillus_johnsonii</text></g><g transform="translate(446.45,103.68)rotate(0)"><text x="15.00" y="2.04" style="fill:rgb(100%,84.3%,0%);fill-opacity:1.0">Mycobacterium_tuberculosis</text></g><g transform="translate(446.45,89.22)rotate(0)"><text x="15.00" y="2.04" style="fill:rgb(100%,54.9%,0%);fill-opacity:1.0">Streptomyces_coelicolor</text></g><g transform="translate(446.45,74.76)rotate(0)"><text x="15.00" y="2.04" style="fill:rgb(64.7%,16.5%,16.5%);fill-opacity:1.0">Mycoplasma_mycoides</text></g><g transform="translate(446.45,60.29)rotate(0)"><text x="15.00" y="2.04" style="fill:rgb(64.7%,16.5%,16.5%);fill-opacity:1.0">Ureaplasma_parvum</text></g></g></g></g></g></svg>